<svg width="45" height="45" viewBox="0 0 45 45" fill="none" xmlns="http://www.w3.org/2000/svg">
<path d="M33.4449 13.5965C31.6483 18.0765 27.1449 24.1665 23.3766 27.1882L21.0783 29.0315C20.7866 29.2415 20.4949 29.4282 20.1683 29.5565C20.1683 29.3465 20.1566 29.1132 20.1216 28.8915C19.9933 27.9115 19.5499 27.0015 18.7683 26.2199C17.9749 25.4265 17.0066 24.9599 16.0149 24.8315C15.7816 24.8199 15.5483 24.7965 15.3149 24.8199C15.4433 24.4582 15.6416 24.1199 15.8866 23.8399L17.7066 21.5415C20.7166 17.7732 26.8299 13.2465 31.2983 11.4615C31.9866 11.2049 32.6516 11.3915 33.0716 11.8232C33.5149 12.2549 33.7249 12.9199 33.4449 13.5965Z" stroke="black" stroke-width="1.5" stroke-linecap="round" stroke-linejoin="round"/>
<path d="M24.6133 25.8816C24.6133 22.8366 22.14 20.3633 19.095 20.3633M20.1683 29.5566C20.1683 30.8399 19.6783 32.0649 18.7567 32.9983C18.045 33.7099 17.0767 34.1999 15.9217 34.3516L13.0517 34.6666C11.4883 34.8416 10.1467 33.5116 10.3333 31.9249L10.6483 29.0549C10.9283 26.4999 13.0633 24.8666 15.3267 24.8199C15.56 24.8083 15.805 24.8199 16.0267 24.8316C17.0183 24.9599 17.9867 25.4149 18.78 26.2199C19.5617 27.0016 20.005 27.9116 20.1333 28.8916C20.145 29.1133 20.1683 29.3349 20.1683 29.5566Z" stroke="black" stroke-width="1.5" stroke-linecap="round" stroke-linejoin="round"/>
<path d="M23.715 33.348C25.43 35.063 27.1683 35.063 28.8833 33.348L32.3366 29.8947C34.075 28.1563 34.075 26.4413 32.3366 24.703L31.4733 23.8513L28.02 27.293M11.6283 21.2613C9.91329 19.523 9.91329 17.808 11.6283 16.0697L15.0816 12.6163C16.7966 10.9013 18.535 10.9013 20.25 12.6163L21.1133 13.4797M21.125 13.4913L16.8083 17.808" stroke="black" stroke-width="1.5" stroke-linecap="round"/>
<rect x="0.5" y="0.5" width="44" height="44" rx="4.5" stroke="black"/>
</svg>
