<svg width="45" height="45" viewBox="0 0 45 45" fill="none" xmlns="http://www.w3.org/2000/svg">
<path d="M22.1867 21.6812C22.07 21.6695 21.93 21.6695 21.8017 21.6812C20.4626 21.6357 19.1938 21.0708 18.2639 20.1062C17.3341 19.1415 16.8162 17.8527 16.82 16.5129C16.82 13.6545 19.13 11.3329 22 11.3329C22.6795 11.3206 23.3547 11.4423 23.9872 11.691C24.6196 11.9397 25.1969 12.3106 25.686 12.7824C26.1752 13.2542 26.5666 13.8177 26.8379 14.4407C27.1093 15.0638 27.2552 15.7342 27.2675 16.4137C27.2798 17.0932 27.1581 17.7684 26.9094 18.4009C26.6607 19.0333 26.2898 19.6106 25.818 20.0997C25.3462 20.5889 24.7827 20.9803 24.1596 21.2516C23.5366 21.523 22.8662 21.6689 22.1867 21.6812ZM16.3533 25.9862C13.53 27.8762 13.53 30.9562 16.3533 32.8345C19.5617 34.9812 24.8233 34.9812 28.0317 32.8345C30.855 30.9445 30.855 27.8645 28.0317 25.9862C24.835 23.8512 19.5733 23.8512 16.3533 25.9862Z" stroke="black" stroke-width="1.5" stroke-linecap="round" stroke-linejoin="round"/>
<rect x="0.5" y="0.5" width="44" height="44" rx="4.5" stroke="black"/>
</svg>
