<svg width="45" height="45" viewBox="0 0 45 45" fill="none" xmlns="http://www.w3.org/2000/svg">
<path d="M13.17 18.4404L22 23.5504L30.77 18.4704M22 32.6104V23.5404" stroke="black" stroke-width="1.5" stroke-linecap="round" stroke-linejoin="round"/>
<path d="M19.93 13.4803L14.59 16.4403C13.38 17.1103 12.39 18.7903 12.39 20.1703V25.8203C12.39 27.2003 13.38 28.8803 14.59 29.5503L19.93 32.5203C21.07 33.1503 22.94 33.1503 24.08 32.5203L29.42 29.5503C30.63 28.8803 31.62 27.2003 31.62 25.8203V20.1703C31.62 18.7903 30.63 17.1103 29.42 16.4403L24.08 13.4703C22.93 12.8403 21.07 12.8403 19.93 13.4803Z" stroke="black" stroke-width="1.5" stroke-linecap="round" stroke-linejoin="round"/>
<rect x="0.5" y="0.5" width="44" height="44" rx="4.5" stroke="black"/>
</svg>
