<svg width="25" height="25" fill="none" xmlns="http://www.w3.org/2000/svg"><path d="m5.667 14.333-2-3-1.61-2.95a5.07 5.07 0 0 1-.536-1.52l-.1-.55a4.098 4.098 0 0 1 6.929-3.63l.707.707a3.07 3.07 0 0 1 .226 4.09 3.07 3.07 0 0 0-.58 2.662l.104.419c.127.51.355.989.67 1.41l.694.924c.55.733 1.201 1.384 1.934 1.934l.925.693c.42.316.9.544 1.409.671l.42.105a3.07 3.07 0 0 0 2.662-.581 3.07 3.07 0 0 1 4.089.226l.784.784a3.98 3.98 0 0 1-3.78 6.676l-1.01-.252c-.402-.1-.79-.244-1.16-.43l-2.777-1.388-1.986-1.24a9.996 9.996 0 0 1-1.285-.955l-2.063-1.805-2.666-3Z" stroke="#fff"/></svg>