<svg width="24" height="24" viewBox="0 0 24 24" fill="none" xmlns="http://www.w3.org/2000/svg">
<path d="M12.1602 10.8697C12.0602 10.8597 11.9402 10.8597 11.8302 10.8697C10.6824 10.8308 9.59486 10.3466 8.79784 9.5197C8.00083 8.69283 7.55696 7.5882 7.56021 6.43974C7.56021 3.98974 9.54022 1.99974 12.0002 1.99974C12.5826 1.98924 13.1614 2.09355 13.7035 2.30672C14.2456 2.5199 14.7404 2.83776 15.1597 3.24216C15.5789 3.64656 15.9144 4.12957 16.147 4.66363C16.3796 5.19769 16.5047 5.77233 16.5152 6.35474C16.5257 6.93716 16.4214 7.51594 16.2082 8.05804C15.9951 8.60013 15.6772 9.09494 15.2728 9.51419C14.8684 9.93345 14.3854 10.269 13.8513 10.5015C13.3173 10.7341 12.7426 10.8592 12.1602 10.8697ZM7.16021 14.5597C4.74021 16.1797 4.74021 18.8197 7.16021 20.4297C9.91021 22.2697 14.4202 22.2697 17.1702 20.4297C19.5902 18.8097 19.5902 16.1697 17.1702 14.5597C14.4302 12.7297 9.92021 12.7297 7.16021 14.5597Z" stroke="black" stroke-width="1.5" stroke-linecap="round" stroke-linejoin="round"/>
</svg>
